<svg width="1278" height="728" viewBox="0 0 1278 728" fill="none" xmlns="http://www.w3.org/2000/svg">
<g clip-path="url(#clip0_12_80)" filter="url(#filter0_d_12_80)">
<g clip-path="url(#clip1_12_80)">
<path fill-rule="evenodd" clip-rule="evenodd" d="M1084.65 407C1124.92 407 1156 441.187 1156 481.473C1156 515.096 1118.26 529.611 1084.65 529.611C1058.48 529.611 1038 507.659 1038 481.473C1038 447.149 1050.35 407 1084.65 407Z" fill="#EC6834"/>
<path fill-rule="evenodd" clip-rule="evenodd" d="M1197.22 529.172C1323.18 468.169 1465.43 332.03 1564.14 431.239C1661.67 529.261 1512.3 663.984 1457.8 791.067C1384.8 961.311 1405.18 1232.56 1219.95 1233.88C999.239 1235.44 818.807 1016.26 811.692 795.66C806.124 623.034 1041.78 604.456 1197.22 529.172Z" fill="#6E4EF9"/>
<path fill-rule="evenodd" clip-rule="evenodd" d="M75.0809 167.297C-4.90944 282.135 -62.3382 470.473 -196.972 432.261C-329.993 394.507 -265.661 203.92 -280.327 66.4252C-299.975 -117.767 -450.496 -344.338 -289.605 -436.134C-97.8954 -545.514 166.717 -442.67 280.879 -253.77C370.213 -105.952 173.798 25.5726 75.0809 167.297Z" fill="#FFC13C"/>
</g>
<path d="M1048.11 582.626L1023.7 570.57L1042.02 718.74H826.667C824.411 718.74 822.575 716.924 822.556 714.661L821.89 633.808L821.502 587.506L821.211 552.839L821.186 549.549L821.102 539.446V539.42C821.108 539.388 821.108 539.362 821.102 539.349C821.102 539.349 821.102 539.349 821.102 539.342L820.623 481.618C768.193 479.931 761.276 486.563 761.276 486.563C762.162 441.185 735.873 425.167 721.826 419.854C722.395 419.569 722.97 419.285 723.552 419.007C775.459 394.153 862.562 422.976 862.562 422.976C862.562 422.976 886.583 448.716 920.041 430.125L1082.92 513.027C1044.64 536.175 1048.11 582.626 1048.11 582.626Z" fill="#6E4EF9"/>
<path d="M820.623 482.911C819.912 482.911 819.33 482.329 819.33 481.618V464.417C819.33 463.706 819.912 463.124 820.623 463.124C821.334 463.124 821.916 463.706 821.916 464.417V481.618C821.916 482.329 821.334 482.911 820.623 482.911Z" fill="#323232"/>
<path d="M919.233 687.37V741.028C919.233 745.294 915.742 748.785 911.476 748.785H878.787C874.521 748.785 871.03 745.294 871.03 741.028V687.37C871.03 683.104 874.521 679.613 878.787 679.613H911.476C915.742 679.613 919.233 683.104 919.233 687.37Z" fill="#FFC13C"/>
<path d="M899.595 716.937C896.13 716.937 893.305 714.118 893.305 710.647C893.305 707.176 896.124 704.358 899.595 704.358C903.06 704.358 905.884 707.176 905.884 710.647C905.884 714.118 903.066 716.937 899.595 716.937ZM899.595 706.943C897.552 706.943 895.891 708.604 895.891 710.647C895.891 712.69 897.552 714.351 899.595 714.351C901.637 714.351 903.299 712.69 903.299 710.647C903.299 708.604 901.637 706.943 899.595 706.943Z" fill="#323232"/>
<path d="M904.889 722.399C906.899 722.399 908.528 720.769 908.528 718.759C908.528 716.75 906.899 715.12 904.889 715.12C902.879 715.12 901.25 716.75 901.25 718.759C901.25 720.769 902.879 722.399 904.889 722.399Z" fill="#6E4EF9"/>
<path d="M885.49 722.399C887.5 722.399 889.129 720.769 889.129 718.759C889.129 716.75 887.5 715.12 885.49 715.12C883.48 715.12 881.851 716.75 881.851 718.759C881.851 720.769 883.48 722.399 885.49 722.399Z" fill="#6E4EF9"/>
<path d="M1067.81 700.085C1067.81 706.355 1067.5 712.58 1066.88 718.74H1034.36C1035.11 712.599 1035.49 706.368 1035.49 700.085C1035.49 659.413 1019.6 621.184 990.758 592.484C962.206 564.074 923.35 548.134 883.073 548.295C869.207 548.353 855.633 550.254 842.62 553.893C835.31 555.929 828.18 558.521 821.283 561.637C804.767 569.09 789.57 579.562 776.37 592.755C747.702 621.423 731.91 659.542 731.91 700.085C731.91 705.482 732.195 710.847 732.744 716.142C732.886 717.525 731.82 718.74 730.423 718.74H702.647C701.438 718.74 700.424 717.822 700.32 716.62C699.835 711.151 699.59 705.637 699.59 700.085C699.59 650.783 718.84 604.442 753.778 569.64C788.885 534.675 836.829 515.296 886.369 515.994C934.546 516.673 979.737 535.761 1013.88 569.905C1048.66 604.675 1067.81 650.906 1067.81 700.085Z" fill="#FFC13C"/>
<path d="M737.146 661.604C737.043 661.604 736.946 661.591 736.842 661.565L705.407 653.951C704.716 653.782 704.289 653.084 704.457 652.393C704.625 651.701 705.323 651.268 706.015 651.443L737.45 659.057C738.142 659.225 738.568 659.923 738.4 660.615C738.264 661.203 737.734 661.604 737.146 661.604Z" fill="#323232"/>
<path d="M841.373 555.535C840.823 555.535 840.313 555.186 840.138 554.63L830.371 523.796C830.158 523.118 830.533 522.387 831.211 522.174C831.89 521.954 832.62 522.335 832.834 523.014L842.601 553.848C842.814 554.527 842.439 555.257 841.761 555.47C841.631 555.516 841.502 555.535 841.373 555.535Z" fill="#323232"/>
<path d="M950.745 565.115C950.538 565.115 950.331 565.063 950.138 564.96C949.504 564.623 949.271 563.841 949.607 563.208L964.824 534.662C965.16 534.029 965.942 533.79 966.576 534.132C967.209 534.469 967.442 535.251 967.106 535.884L951.889 564.43C951.65 564.863 951.204 565.115 950.745 565.115Z" fill="#323232"/>
<path d="M1015.13 625.308C1014.71 625.308 1014.29 625.101 1014.04 624.72C1013.65 624.125 1013.82 623.324 1014.42 622.929L1041.53 605.244C1042.12 604.849 1042.93 605.024 1043.32 605.619C1043.71 606.213 1043.54 607.015 1042.94 607.409L1015.83 625.095C1015.61 625.237 1015.37 625.308 1015.13 625.308Z" fill="#323232"/>
<path d="M1189.3 673.213C1187.9 677.68 1186.13 682.14 1183.95 686.284C1173.81 705.566 1155.68 720.576 1136.88 730.944C1117.4 741.694 1096.86 746.342 1075.72 751.629C1075.71 751.629 1036.21 761.506 1022.24 750.886C1008.26 740.265 1017.21 729.832 1017.21 729.832C1014.33 725.314 1012.83 721.668 1012.19 718.74C1010.24 709.703 1016.57 707.473 1016.57 707.473C1007.54 697.228 1018.88 688.844 1018.88 688.844C1013.38 673.252 1018.8 664.235 1023.58 659.697C1026.39 657.014 1028.99 655.89 1028.99 655.89C1030.87 662.128 1032.36 668.501 1033.43 674.985C1036.76 676.491 1054.99 683.847 1065.12 668.475C1064.67 665.831 1064.16 663.207 1063.59 660.602C1065.28 660.195 1067.21 660.447 1069.2 661.106C1076.65 663.55 1084.95 671.61 1084.95 671.61C1113.05 661.074 1111.73 649.219 1111.73 649.219C1120.07 621.126 1048.11 582.626 1048.11 582.626C1048.11 582.626 1044.64 536.175 1082.92 513.027C1103.16 523.331 1121.09 537.041 1138.13 551.902C1171.51 581.016 1203.92 626.517 1189.3 673.213Z" fill="#AF5D44"/>
<path d="M795.943 593.059C795.704 605.263 783.978 607.293 783.978 607.293C784.34 621.766 772.408 623.046 772.408 623.046C770.274 630.77 760.688 640.092 742.317 636.627C723.946 633.168 712.208 606 712.208 606C695.996 578.566 688.562 549.536 681.154 518.353C676.726 499.705 676.571 480.597 683.197 462.284C690.01 443.454 704.108 428.813 721.826 419.854C735.873 425.167 762.162 441.185 761.276 486.563C752.104 492.155 749.234 500.118 749.221 507.888C749.208 521.256 758.284 532.898 771.063 536.815C779.053 539.265 784.321 541.618 787.307 543.15C787.307 543.15 768.103 557.455 779.376 568.088C790.649 578.715 813.054 565.658 813.054 565.658L814.243 566.744C821.179 583.253 795.943 593.059 795.943 593.059Z" fill="#AF5D44"/>
<path d="M771.464 624.384C768.723 624.384 761.367 623.556 754.192 615.619C753.714 615.088 753.752 614.274 754.282 613.789C754.812 613.311 755.627 613.35 756.105 613.88C764.075 622.697 772.156 621.772 772.24 621.759C772.951 621.662 773.597 622.167 773.688 622.878C773.778 623.582 773.28 624.235 772.569 624.326C772.498 624.339 772.11 624.384 771.464 624.384Z" fill="#323232"/>
<path d="M782.905 608.482C780.164 608.482 772.808 607.655 765.633 599.717C765.155 599.187 765.194 598.372 765.724 597.888C766.254 597.409 767.068 597.448 767.547 597.978C775.517 606.795 783.597 605.871 783.681 605.858C784.392 605.761 785.038 606.265 785.129 606.976C785.219 607.681 784.722 608.333 784.011 608.424C783.939 608.437 783.552 608.482 782.905 608.482Z" fill="#323232"/>
<path d="M794.696 593.686C791.955 593.686 784.599 592.858 777.424 584.921C776.945 584.391 776.984 583.576 777.514 583.091C778.044 582.613 778.859 582.652 779.337 583.182C787.249 591.934 795.142 591.1 795.471 591.061C796.183 590.977 796.822 591.482 796.913 592.186C797.003 592.891 796.506 593.537 795.795 593.628C795.736 593.641 795.342 593.686 794.696 593.686Z" fill="#323232"/>
<path d="M1028.71 713.058C1019.85 713.058 1015.72 708.882 1015.53 708.682C1015.03 708.165 1015.05 707.35 1015.56 706.853C1016.07 706.361 1016.89 706.374 1017.38 706.885C1017.57 707.072 1021.91 711.352 1031.64 710.311C1032.35 710.246 1032.99 710.75 1033.07 711.461C1033.14 712.172 1032.63 712.806 1031.91 712.884C1030.79 713.006 1029.72 713.058 1028.71 713.058Z" fill="#323232"/>
<path d="M1031.29 694.901C1022.42 694.901 1018.29 690.725 1018.1 690.524C1017.6 690.007 1017.62 689.193 1018.13 688.695C1018.64 688.204 1019.46 688.217 1019.96 688.727C1020.15 688.921 1024.5 693.188 1034.22 692.153C1034.93 692.089 1035.56 692.593 1035.64 693.304C1035.72 694.015 1035.2 694.648 1034.49 694.726C1033.36 694.849 1032.3 694.901 1031.29 694.901Z" fill="#323232"/>
<path d="M1089.37 694.9C1089.32 694.9 1089.27 694.9 1089.23 694.894C1088.51 694.816 1088 694.177 1088.08 693.465C1089.8 677.809 1084.16 672.638 1084.1 672.586C1083.57 672.115 1083.51 671.3 1083.97 670.77C1084.44 670.234 1085.24 670.169 1085.78 670.628C1086.06 670.861 1092.53 676.568 1090.65 693.75C1090.58 694.409 1090.01 694.9 1089.37 694.9Z" fill="#323232"/>
<path d="M771.464 624.384C768.723 624.384 761.367 623.556 754.192 615.619C753.714 615.088 753.752 614.274 754.282 613.789C754.812 613.311 755.627 613.35 756.105 613.88C764.075 622.697 772.156 621.772 772.24 621.759C772.951 621.662 773.597 622.167 773.688 622.878C773.778 623.582 773.28 624.235 772.569 624.326C772.498 624.339 772.11 624.384 771.464 624.384Z" fill="#323232"/>
<path d="M954.229 313.19C954.229 316.855 953.253 320.294 951.547 323.255C951.301 323.688 951.036 324.108 950.752 324.515C947.125 329.874 940.991 333.39 934.029 333.39C933.059 333.39 932.103 333.319 931.165 333.19C930.422 346.894 925.833 359.292 918.722 368.749C918.127 369.537 917.52 370.307 916.886 371.05C916.149 371.936 915.387 372.789 914.598 373.61C906.46 382.104 895.949 387.223 884.482 387.223C876.563 387.223 869.097 384.78 862.562 380.475C857.695 377.268 853.331 373.022 849.679 367.98C849.647 367.934 849.608 367.889 849.576 367.837C843.784 359.809 839.776 349.77 838.309 338.671C836.182 339.434 833.881 339.854 831.483 339.854C821.392 339.854 813.028 332.453 811.528 322.783C811.457 322.343 811.399 321.897 811.36 321.451C811.308 320.856 811.283 320.262 811.283 319.654C811.283 308.497 820.326 299.454 831.483 299.454C832.633 299.454 833.758 299.551 834.851 299.738C834.838 299.732 834.831 299.732 834.818 299.725C835.174 274.056 855.697 253.274 881.25 252.486C881.748 252.466 882.252 252.46 882.756 252.46C888.347 252.46 893.719 253.417 898.709 255.181C915.206 260.999 927.565 275.582 930.183 293.345C930.157 293.358 930.125 293.365 930.099 293.378C931.372 293.125 932.685 292.99 934.029 292.99C945.186 292.99 954.229 302.033 954.229 313.19Z" fill="#AF5D44"/>
<path d="M920.041 430.125C886.583 448.716 862.562 422.976 862.562 422.976V380.475C867.527 383.745 873.034 385.943 878.865 386.803C880.707 387.081 882.581 387.223 884.482 387.223C895.949 387.223 906.46 382.104 914.598 373.61L920.041 430.125Z" fill="#AF5D44"/>
<path d="M882.976 388.859C869.052 388.859 862.006 381.877 861.657 381.522C861.159 381.011 861.166 380.197 861.677 379.692C862.187 379.195 863.002 379.201 863.506 379.705C863.545 379.744 865.917 382.091 870.526 383.946C874.792 385.665 881.922 387.314 891.625 385.374C892.329 385.232 893.008 385.691 893.144 386.389C893.286 387.087 892.827 387.773 892.129 387.908C888.806 388.581 885.755 388.859 882.976 388.859Z" fill="#323232"/>
<path d="M930.183 293.345C918.056 297.683 905.16 296.681 895.212 289.415C892.846 287.689 890.765 285.692 888.981 283.481C880.222 295.013 866.369 302.453 850.778 302.453C845.18 302.453 839.809 301.496 834.818 299.725C835.174 274.056 855.697 253.274 881.25 252.486C881.748 252.466 882.252 252.46 882.756 252.46C888.347 252.46 893.719 253.417 898.709 255.181C915.206 260.999 927.565 275.582 930.183 293.345Z" fill="#323232"/>
<path d="M880.642 241.277C889.831 241.277 897.281 233.828 897.281 224.639C897.281 215.449 889.831 208 880.642 208C871.453 208 864.004 215.449 864.004 224.639C864.004 233.828 871.453 241.277 880.642 241.277Z" fill="#323232"/>
<path d="M849.576 367.837L834.889 384.786C834.353 385.407 833.461 385.588 832.724 385.219L806.286 372.007C805.478 371.606 805.096 370.669 805.387 369.815L811.283 352.608L790.804 362.517C790.229 362.795 789.55 362.75 789.02 362.395L768.193 348.458C766.771 347.508 767.185 345.329 768.852 344.955C790.113 340.152 804.903 328.788 811.535 322.789C813.034 332.459 821.399 339.861 831.489 339.861C833.888 339.861 836.189 339.441 838.315 338.678C839.776 349.77 843.784 359.809 849.576 367.837Z" fill="#323232"/>
<path d="M959.317 365.181L943.719 360.494L949.64 372.007C950.066 372.834 949.627 373.849 948.728 374.101L927.423 380.171C926.919 380.313 926.376 380.177 925.994 379.815L916.88 371.05C917.513 370.307 918.121 369.537 918.716 368.749C925.826 359.292 930.416 346.894 931.159 333.19C932.096 333.319 933.053 333.39 934.023 333.39C940.984 333.39 947.119 329.874 950.745 324.515C955.457 329.046 966.44 337.65 983.059 339.156C984.714 339.305 985.412 341.348 984.21 342.492L960.752 364.832C960.377 365.2 959.821 365.329 959.317 365.181Z" fill="#323232"/>
<path d="M832.304 349.551C832.278 349.551 832.246 349.551 832.213 349.551L820.294 348.743C819.841 348.71 819.434 348.445 819.227 348.038C819.02 347.631 819.046 347.146 819.285 346.764L825.924 336.235C826.176 335.834 826.622 335.607 827.1 335.633C827.572 335.666 827.992 335.95 828.193 336.377L833.474 347.708C833.668 348.122 833.629 348.607 833.37 348.988C833.131 349.344 832.73 349.551 832.304 349.551ZM822.633 346.312L830.209 346.823L826.855 339.622L822.633 346.312Z" fill="#171D3E"/>
<path d="M935.361 342.977C935.102 342.602 935.063 342.117 935.257 341.697L940.538 330.365C940.739 329.938 941.159 329.654 941.631 329.622C942.103 329.596 942.555 329.822 942.807 330.223L949.446 340.753C949.692 341.141 949.711 341.626 949.504 342.026C949.297 342.427 948.89 342.699 948.437 342.731L936.511 343.532C936.479 343.532 936.453 343.532 936.421 343.532C936.001 343.539 935.606 343.326 935.361 342.977ZM941.883 333.604L938.528 340.805L946.104 340.294L941.883 333.604Z" fill="#171D3E"/>
<path d="M833.971 320.21H822.368C821.657 320.21 821.076 319.628 821.076 318.917C821.076 318.206 821.657 317.624 822.368 317.624H833.971C834.683 317.624 835.264 318.206 835.264 318.917C835.264 319.628 834.689 320.21 833.971 320.21Z" fill="#323232"/>
<path d="M941.094 314.147H929.491C928.78 314.147 928.198 313.565 928.198 312.854C928.198 312.143 928.78 311.561 929.491 311.561H941.094C941.805 311.561 942.387 312.143 942.387 312.854C942.387 313.565 941.812 314.147 941.094 314.147Z" fill="#323232"/>
<path d="M880.183 332.459C880.047 332.459 879.912 332.44 879.776 332.395C877.242 331.548 875.645 329.014 875.982 326.37L877.468 314.489C877.559 313.778 878.205 313.281 878.91 313.365C879.621 313.455 880.119 314.101 880.035 314.806L878.548 326.687C878.367 328.116 879.233 329.486 880.597 329.938C881.276 330.165 881.638 330.895 881.418 331.574C881.23 332.117 880.726 332.459 880.183 332.459Z" fill="#323232"/>
<path d="M880.868 340.669C880.371 340.669 880.073 340.643 880.054 340.643C879.343 340.572 878.826 339.932 878.903 339.221C878.974 338.51 879.608 337.999 880.319 338.07C880.81 338.115 892 339.053 893.816 325.504C893.913 324.793 894.559 324.302 895.27 324.392C895.975 324.489 896.473 325.136 896.382 325.847C894.521 339.66 883.913 340.669 880.868 340.669Z" fill="#323232"/>
<path d="M859.038 314.336C862.979 311.543 865.015 307.644 863.586 305.628C862.157 303.613 857.804 304.244 853.864 307.038C849.923 309.832 847.887 313.73 849.316 315.746C850.745 317.761 855.098 317.13 859.038 314.336Z" fill="#323232"/>
<path d="M908.344 313.697C909.958 311.827 908.301 307.752 904.644 304.597C900.986 301.442 896.713 300.401 895.099 302.272C893.486 304.142 895.142 308.216 898.8 311.371C902.457 314.527 906.73 315.568 908.344 313.697Z" fill="#323232"/>
<path d="M860.203 321.723C861.424 321.723 862.413 320.733 862.413 319.512C862.413 318.291 861.424 317.301 860.203 317.301C858.982 317.301 857.992 318.291 857.992 319.512C857.992 320.733 858.982 321.723 860.203 321.723Z" fill="#323232"/>
<path d="M898.483 320.359C899.704 320.359 900.694 319.369 900.694 318.148C900.694 316.927 899.704 315.937 898.483 315.937C897.262 315.937 896.272 316.927 896.272 318.148C896.272 319.369 897.262 320.359 898.483 320.359Z" fill="#323232"/>
<path d="M911.741 335.284C914.768 335.284 917.222 332.83 917.222 329.803C917.222 326.775 914.768 324.321 911.741 324.321C908.713 324.321 906.259 326.775 906.259 329.803C906.259 332.83 908.713 335.284 911.741 335.284Z" fill="#EC6834"/>
<path d="M1093.51 427.035H994.785C994.404 427.035 994.042 426.867 993.796 426.576C993.55 426.286 993.447 425.898 993.512 425.523C996.071 411.024 1009.13 408.244 1013.19 407.727C1013.56 401.754 1016.74 375.213 1044.14 375.142C1044.18 375.142 1044.22 375.142 1044.25 375.142C1060.81 375.142 1069.12 384.877 1073.19 393.054C1076.59 399.899 1077.62 406.667 1077.92 409.479C1082.65 409.169 1086.51 410.319 1089.42 412.905C1094.75 417.643 1094.8 425.413 1094.8 425.743C1094.8 426.454 1094.22 427.035 1093.51 427.035ZM996.375 424.45H1092.12C1091.88 422.252 1090.97 417.734 1087.68 414.825C1085.08 412.524 1081.46 411.631 1076.89 412.168C1076.53 412.207 1076.17 412.103 1075.9 411.871C1075.62 411.638 1075.46 411.302 1075.44 410.946C1075.43 410.862 1074.97 402.414 1070.83 394.133C1065.39 383.248 1056.45 377.721 1044.25 377.721C1044.22 377.721 1044.18 377.721 1044.14 377.721C1032.34 377.753 1023.98 382.97 1019.29 393.228C1015.74 400.992 1015.72 408.82 1015.72 408.897C1015.72 409.595 1015.17 410.171 1014.47 410.19C1013.85 410.216 999.743 410.882 996.375 424.45Z" fill="#323232"/>
<path d="M1150.06 359.46H1111.72C1111.35 359.46 1111 359.305 1110.75 359.027C1110.5 358.749 1110.39 358.38 1110.43 358.012C1111 353.241 1112.61 349.912 1115.2 348.115C1116.74 347.042 1118.31 346.758 1119.44 346.726C1119.44 344.412 1119.83 339.971 1122.52 336.978C1124.29 335.006 1126.72 334.004 1129.75 333.991C1129.76 333.991 1129.78 333.991 1129.8 333.991C1132.81 333.991 1135.29 334.98 1137.16 336.933C1140.1 339.997 1140.69 344.618 1140.8 346.861C1151.23 347.65 1151.35 358.064 1151.35 358.174C1151.35 358.885 1150.77 359.46 1150.06 359.46ZM1113.22 356.874H1148.64C1148.23 354.431 1146.54 349.395 1139.52 349.395C1139.16 349.395 1138.82 349.253 1138.58 348.995C1138.33 348.736 1138.2 348.393 1138.22 348.044C1138.22 347.986 1138.44 341.994 1135.29 338.71C1133.9 337.275 1132.11 336.577 1129.8 336.577C1129.79 336.577 1129.77 336.577 1129.76 336.577C1127.47 336.583 1125.73 337.282 1124.45 338.704C1121.5 341.981 1122.08 347.921 1122.09 347.98C1122.13 348.4 1121.97 348.807 1121.66 349.085C1121.34 349.363 1120.91 349.466 1120.5 349.369C1120.43 349.35 1118.51 348.943 1116.64 350.268C1114.97 351.444 1113.8 353.713 1113.22 356.874Z" fill="#323232"/>
<path d="M1088.18 301.516H1014.48C1014.12 301.516 1013.78 301.367 1013.53 301.102C1013.29 300.837 1013.16 300.488 1013.19 300.126C1013.73 292.886 1016.16 287.618 1020.42 284.47C1025.08 281.031 1030.58 281.135 1033.16 281.425C1033.7 276.099 1036.75 258.006 1053.38 258.006C1070.07 258.006 1073.13 276.015 1073.66 281.186C1078.84 280.824 1082.85 282.104 1085.62 284.994C1090.97 290.572 1089.52 300.029 1089.45 300.43C1089.36 301.057 1088.82 301.516 1088.18 301.516ZM1015.9 298.93H1087.02C1087.21 296.474 1087.26 290.424 1083.75 286.778C1081.34 284.27 1077.6 283.3 1072.63 283.882C1072.28 283.927 1071.91 283.817 1071.64 283.578C1071.36 283.339 1071.2 283.003 1071.18 282.641C1071.18 282.583 1070.97 276.933 1068.6 271.393C1065.53 264.225 1060.41 260.592 1053.38 260.592C1046.35 260.592 1041.24 264.276 1038.19 271.542C1035.83 277.159 1035.64 282.893 1035.64 282.951C1035.62 283.339 1035.44 283.701 1035.13 283.934C1034.83 284.173 1034.44 284.257 1034.05 284.173C1033.99 284.16 1027.16 282.686 1021.93 286.558C1018.6 289.053 1016.57 293.21 1015.9 298.93Z" fill="#323232"/>
<path d="M733.216 300.617C732.666 300.617 732.162 300.268 731.988 299.725C731.115 297.023 729.855 295.414 728.251 294.935C725.627 294.153 722.666 296.506 722.641 296.532C722.085 296.978 721.27 296.894 720.824 296.338C720.378 295.782 720.456 294.974 721.012 294.522C721.173 294.392 725.039 291.29 728.975 292.453C730.449 292.886 731.703 293.843 732.718 295.291C733.125 294.354 733.733 293.416 734.657 292.679C736.441 291.264 738.885 290.967 741.923 291.787C742.615 291.975 743.015 292.686 742.834 293.378C742.647 294.069 741.936 294.47 741.244 294.289C739.046 293.694 737.379 293.83 736.273 294.703C734.438 296.151 734.509 299.253 734.509 299.286C734.528 299.926 734.069 300.488 733.436 300.598C733.358 300.611 733.287 300.617 733.216 300.617Z" fill="#323232"/>
<path d="M1136.88 477.656C1136.33 477.656 1135.82 477.3 1135.65 476.764C1134.77 474.062 1133.52 472.452 1131.91 471.974C1129.3 471.192 1126.34 473.544 1126.3 473.57C1125.75 474.016 1124.93 473.932 1124.49 473.376C1124.04 472.82 1124.12 472.012 1124.67 471.56C1124.84 471.431 1128.7 468.328 1132.64 469.491C1134.11 469.925 1135.37 470.881 1136.38 472.329C1136.79 471.392 1137.4 470.455 1138.32 469.718C1140.1 468.302 1142.55 467.998 1145.59 468.826C1146.28 469.013 1146.68 469.724 1146.5 470.409C1146.31 471.101 1145.6 471.502 1144.91 471.314C1142.71 470.72 1141.03 470.855 1139.93 471.735C1138.11 473.176 1138.17 476.279 1138.18 476.305C1138.2 476.951 1137.74 477.513 1137.11 477.623C1137.03 477.649 1136.96 477.656 1136.88 477.656Z" fill="#323232"/>
<path d="M878.865 386.803L862.562 403.59V380.475C867.527 383.745 873.034 385.943 878.865 386.803Z" fill="#323232"/>
<path d="M842.621 553.893L821.502 587.506L821.283 561.637C828.18 558.521 835.31 555.929 842.621 553.893Z" fill="#323232"/>
<path d="M930.997 718.74H919.233V700.899L930.997 718.74Z" fill="#323232"/>
</g>
<defs>
<filter id="filter0_d_12_80" x="0" y="0" width="1278" height="728" filterUnits="userSpaceOnUse" color-interpolation-filters="sRGB">
<feFlood flood-opacity="0" result="BackgroundImageFix"/>
<feColorMatrix in="SourceAlpha" type="matrix" values="0 0 0 0 0 0 0 0 0 0 0 0 0 0 0 0 0 0 127 0" result="hardAlpha"/>
<feOffset dy="4"/>
<feGaussianBlur stdDeviation="2"/>
<feComposite in2="hardAlpha" operator="out"/>
<feColorMatrix type="matrix" values="0 0 0 0 0 0 0 0 0 0 0 0 0 0 0 0 0 0 0.25 0"/>
<feBlend mode="normal" in2="BackgroundImageFix" result="effect1_dropShadow_12_80"/>
<feBlend mode="normal" in="SourceGraphic" in2="effect1_dropShadow_12_80" result="shape"/>
</filter>
<clipPath id="clip0_12_80">
<rect width="1270" height="720" fill="white" transform="translate(4)"/>
</clipPath>
<clipPath id="clip1_12_80">
<rect width="1270" height="720" fill="white" transform="translate(4)"/>
</clipPath>
</defs>
</svg>
